<?xml version="1.0" encoding="utf-8"?>
<!-- Generator: Adobe Illustrator 21.0.0, SVG Export Plug-In . SVG Version: 6.00 Build 0)  -->
<svg version="1.1" id="Layer_1" xmlns="http://www.w3.org/2000/svg" xmlns:xlink="http://www.w3.org/1999/xlink" x="0px" y="0px"
	 viewBox="0 0 125 125" style="enable-background:new 0 0 125 125;" xml:space="preserve">
<style type="text/css">
	.st0{fill:none;stroke:#000000;stroke-width:2;stroke-linecap:round;stroke-linejoin:round;stroke-miterlimit:10;}
	.st1{fill:none;stroke:#000000;stroke-linecap:round;stroke-linejoin:round;stroke-miterlimit:10;}
	.st2{fill:none;stroke:#000000;stroke-width:2;stroke-linecap:round;stroke-miterlimit:10;}
	.st3{fill:none;stroke:#000000;stroke-width:2;stroke-miterlimit:10;}
	.st4{fill-rule:evenodd;clip-rule:evenodd;fill:none;stroke:#000000;stroke-width:2;stroke-linecap:round;stroke-miterlimit:10;}
	.st5{fill-rule:evenodd;clip-rule:evenodd;fill:none;stroke:#000000;stroke-width:2;stroke-miterlimit:10;}
	.st6{fill:none;stroke:#000000;stroke-width:2;stroke-linecap:round;stroke-linejoin:round;}
	.st7{fill:none;stroke:#000000;stroke-width:2;stroke-linecap:round;stroke-linejoin:round;stroke-dasharray:1.0135,4.054;}
	
		.st8{fill-rule:evenodd;clip-rule:evenodd;fill:none;stroke:#000000;stroke-width:2;stroke-linecap:round;stroke-linejoin:round;stroke-miterlimit:10;}
	.st9{fill:none;stroke:#000000;stroke-width:2;}
</style>
<g>
	<path class="st3" d="M70.9,77.3l-6.2,28.3c-0.8,3.7-6.1,3.7-6.9,0l-6.2-28.3c-0.9-4-1.3-8.1-1.3-12.2V27.8h22v37.3
		C72.3,69.2,71.8,73.3,70.9,77.3z"/>
	<path class="st3" d="M73.5,27.8H49c-0.7,0-1.2-0.5-1.2-1.2V23c0-0.7,0.5-1.2,1.2-1.2h24.5c0.7,0,1.2,0.5,1.2,1.2v3.6
		C74.7,27.2,74.2,27.8,73.5,27.8z"/>
	<path class="st3" d="M73.5,21.1H49c-0.7,0-1.2-0.5-1.2-1.2v-1.9c0-0.7,0.5-1.2,1.2-1.2h24.5c0.7,0,1.2,0.5,1.2,1.2v1.9
		C74.7,20.5,74.2,21.1,73.5,21.1z"/>
	<path class="st3" d="M74.2,18.4c1.7,0,3,1.3,3,3c0,1.7-1.3,3-3,3"/>
</g>
</svg>
